<svg viewBox="0 0 640 400" data-background-color="#ffffff" preserveAspectRatio="xMidYMid meet" height="400" width="640" xmlns="http://www.w3.org/2000/svg" xmlns:xlink="http://www.w3.org/1999/xlink" version="1.1">
  <rect width="640" height="400" x="0" y="0" opacity="1" fill="#ffffff" data-fill-palette-color="background" id="background"></rect>
  <g id="tight-bounds" transform="matrix(1,0,0,1,122.24000000000001,166.87645721053696)">
    <svg height="150" width="150">
                    <path d="M0 41.528c0-22.935 18.593-41.528 41.528-41.528 22.935 0 41.528 18.593 41.528 41.528 0 22.935-18.593 41.528-41.528 41.528-22.935 0-41.528-18.593-41.528-41.528zM41.528 79.752c21.11 0 38.224-17.113 38.224-38.224 0-21.11-17.113-38.224-38.224-38.224-21.11 0-38.224 17.113-38.224 38.224 0 21.11 17.113 38.224 38.224 38.224z" data-fill-palette-color="accent" fill="#61777f" stroke="transparent"></path>
                  <g transform="matrix(1,0,0,1,19.37245344290728,23.141497498113075)">
                          
                        <svg xmlns="http://www.w3.org/2000/svg" xmlns:xlink="http://www.w3.org/1999/xlink" version="1.1" x="0" y="0" viewBox="7.013913631439209 14.337353706359863 85.986083984375 71.35829162597656" xml:space="preserve" height="36.77281414076285" width="44.31090225117444" class="icon-s-0" data-fill-palette-color="accent" id="s-0">
                          <path d="M84.8 30.4L79 45.8l-17.9 5.6L61.3 15c0-0.5-0.4-0.8-0.9-0.6l-10.1 3.4c-0.4 0.1-0.7 0.5-0.9 0.9L35.2 59.6 14 66.2c-5.3 1.7-8.2 7.4-6.5 12.7 1.8 5.3 7.6 8.1 12.8 6.2l70.2-25.3L93 28c0-0.5-0.4-0.8-0.9-0.7l-6.5 2.2C85.2 29.6 84.9 30 84.8 30.4z" fill="#61777f" data-fill-palette-color="accent"></path>
                        </svg>
      </g>
      <defs></defs>
    </svg>
  </g>
</svg>