<svg viewBox="0 0 640 400" data-background-color="#ffffff" preserveAspectRatio="xMidYMid meet" height="400" width="640" xmlns="http://www.w3.org/2000/svg" xmlns:xlink="http://www.w3.org/1999/xlink"><rect width="640" height="400" x="0" y="0" opacity="1" fill="#ffffff" data-fill-palette-color="background" id="background"></rect><g id="tight-bounds" transform="matrix(1,0,0,1,122.24000000000001,166.87645721053696)"><svg viewBox="0 0 395.52 66.24708557892612" height="66.24708557892612" width="395.52"><g><svg viewBox="0 0 495.874397232531 83.055809136989" height="66.24708557892612" width="395.52"><g transform="matrix(1,0,0,1,0,23.209028342679503)"><svg viewBox="0 0 395.52 36.63775245162999" height="36.63775245162999" width="395.52"><g id="textblocktransform"><svg viewBox="0 0 395.52 36.63775245162999" height="36.63775245162999" width="395.52" id="textblock"><g><svg viewBox="0 0 395.52 36.63775245162999" height="36.63775245162999" width="395.52"><g transform="matrix(1,0,0,1,0,0)"><svg width="395.52" viewBox="3.049999952316284 -34.599998474121094 377.17999267578125 34.94999694824219" height="36.63775245162999" data-palette-color="#61777f"><g class="undefined-text-0" data-fill-palette-color="primary" id="text-0"><path d="M21.45-22.4L21.45-22.4Q21.45-24.25 21.1-25.33 20.75-26.4 19.88-26.95 19-27.5 17.98-27.68 16.95-27.85 15.15-27.85L15.15-27.85 15.15-16.85Q16.55-16.85 17.63-17.1 18.7-17.35 19.6-17.95 20.5-18.55 20.98-19.68 21.45-20.8 21.45-22.4ZM15.15-10.3L15.15-7.5Q15.15-3.45 13.65-1.73 12.15 0 9.05 0L9.05 0Q5.95 0 4.5-1.58 3.05-3.15 3.05-7.15L3.05-7.15 3.05-28.25Q3.05-31.3 4.7-32.77 6.35-34.25 9.05-34.25L9.05-34.25 17.95-34.25Q21.2-34.25 23.95-33.38 26.7-32.5 28.73-30.93 30.75-29.35 31.88-26.98 33-24.6 33-21.7L33-21.7Q33-18.15 30.95-15.53 28.9-12.9 25.55-11.6 22.2-10.3 18-10.3L18-10.3 15.15-10.3ZM55.1-7L55.1-7Q56.8-7 58.02-8.5 59.25-10 59.77-12.2 60.3-14.4 60.3-16.9L60.3-16.9Q60.3-19.45 59.75-21.73 59.2-24 57.97-25.6 56.75-27.2 55.1-27.2L55.1-27.2Q53.5-27.2 52.3-25.6 51.1-24 50.5-21.7 49.9-19.4 49.9-16.9L49.9-16.9Q49.9-14.4 50.47-12.2 51.05-10 52.27-8.5 53.5-7 55.1-7ZM63.95-1.68Q60 0.3 55.07 0.3 50.15 0.3 46.22-1.68 42.3-3.65 39.95-7.6 37.6-11.55 37.6-16.9L37.6-16.9Q37.6-25 42.47-29.78 47.35-34.55 55.1-34.55 62.85-34.55 67.75-29.78 72.65-25 72.65-16.9L72.65-16.9Q72.65-11.55 70.27-7.6 67.9-3.65 63.95-1.68ZM92.34-34.6L92.34-34.6Q98.3-34.6 102.5-32.15 106.7-29.7 106.7-26.95L106.7-26.95Q106.7-26.2 106.37-25.68 106.05-25.15 105.57-24.93 105.09-24.7 104.55-24.7L104.55-24.7Q103.65-24.7 101.84-25.63 100.05-26.55 97.84-27.48 95.65-28.4 93.8-28.4L93.8-28.4Q90.84-28.4 90.84-26L90.84-26Q90.84-25.25 91.32-24.58 91.8-23.9 92.84-23.18 93.9-22.45 94.9-21.9 95.9-21.35 97.65-20.43 99.4-19.5 100.59-18.8L100.59-18.8Q104.45-16.6 106-14.6 107.55-12.6 107.55-10L107.55-10Q107.55 0.35 93.59 0.35L93.59 0.35Q90.84 0.35 88.27-0.2 85.7-0.75 83.77-1.65 81.84-2.55 80.37-3.65 78.9-4.75 78.15-5.9 77.4-7.05 77.4-8.05L77.4-8.05Q77.4-9.15 78.12-9.93 78.84-10.7 80.25-10.7L80.25-10.7Q81.3-10.7 85.3-9.38 89.3-8.05 91.75-8.05L91.75-8.05Q94-8.05 94-9.6L94-9.6Q94-10.05 93.82-10.43 93.65-10.8 93.22-11.18 92.8-11.55 92.27-11.88 91.75-12.2 90.82-12.7 89.9-13.2 88.97-13.7 88.05-14.2 86.55-15 85.05-15.8 83.65-16.6L83.65-16.6Q81.8-17.65 80.47-19.2 79.15-20.75 78.55-22.28 77.95-23.8 77.95-25.1L77.95-25.1Q77.95-29.3 81.7-31.95 85.45-34.6 92.34-34.6ZM146.09-28.7L146.09-7.5Q146.09-3.45 144.64-1.73 143.19 0 140.24 0L140.24 0Q137.34 0 135.99-1.58 134.64-3.15 134.64-7.15L134.64-7.15 134.59-12.8 124.39-12.8 124.39-7.5Q124.39-3.4 122.99-1.7 121.59 0 118.54 0L118.54 0Q115.64 0 114.29-1.58 112.94-3.15 112.94-7.15L112.94-7.15 112.79-28.25Q112.79-31.35 114.37-32.8 115.94-34.25 118.54-34.25L118.54-34.25Q121.54-34.25 122.97-33.15 124.39-32.05 124.39-28.7L124.39-28.7 124.39-20.3 134.54-20.3 134.54-28.25Q134.54-30.35 135.32-31.73 136.09-33.1 137.32-33.68 138.54-34.25 140.24-34.25L140.24-34.25Q143.14-34.25 144.62-33.15 146.09-32.05 146.09-28.7L146.09-28.7Z" fill="#61777f" data-fill-palette-color="primary"></path><path d="M168.74 0L155.69 0Q153.39-0.05 151.99-0.73 150.59-1.4 149.89-2.95 149.19-4.5 149.19-7.1L149.19-7.1 149.19-28.25Q149.19-30.9 150.74-32.58 152.29-34.25 154.84-34.25L154.84-34.25Q157.84-34.25 159.27-33.15 160.69-32.05 160.69-28.7L160.69-28.7 160.69-8.65 169.24-8.65Q172.14-8.65 173.32-7.8 174.49-6.95 174.49-4.3L174.49-4.3Q174.49-1.6 173.14-0.8 171.79 0 168.74 0L168.74 0ZM194.39-26.1L194.39-26.1Q192.24-26.1 191.21-24.85 190.19-23.6 190.19-20.4L190.19-20.4 190.19-14.5 198.49-14.5 198.49-20.5Q198.49-22.6 197.99-23.88 197.49-25.15 196.61-25.63 195.74-26.1 194.39-26.1ZM198.49-4.95L198.49-7.6 190.19-7.6 190.19-4.95Q190.19-2.4 188.84-1.2 187.49 0 184.19 0L184.19 0Q182.79 0 181.89-0.4 180.99-0.8 180.31-1.75 179.64-2.7 179.31-4.53 178.99-6.35 178.81-8.93 178.64-11.5 178.64-15.45L178.64-15.45Q178.64-18.9 179.36-21.78 180.09-24.65 181.31-26.65 182.54-28.65 184.09-30.18 185.64-31.7 187.46-32.55 189.29-33.4 191.01-33.83 192.74-34.25 194.49-34.25L194.49-34.25Q196.59-34.25 198.64-33.68 200.69-33.1 202.79-31.7 204.89-30.3 206.46-28.23 208.04-26.15 209.04-22.85 210.04-19.55 210.04-15.45L210.04-15.45Q210.04-8.85 209.56-5.68 209.09-2.5 207.96-1.25 206.84 0 204.49 0L204.49 0Q201.19 0 199.84-1.2 198.49-2.4 198.49-4.95L198.49-4.95ZM247.39-29.95L247.39-4.75Q247.39-2.55 246.09-1.28 244.79 0 242.29 0L242.29 0Q241.64 0 240.99-0.15 240.34-0.3 239.61-0.7 238.89-1.1 238.34-1.45 237.79-1.8 236.96-2.53 236.14-3.25 235.66-3.68 235.18-4.1 234.18-5.05 233.18-6 232.74-6.45L232.74-6.45 223.59-15.1 223.59-4.25Q223.59-1.8 222.66-0.9 221.74 0 219.74 0L219.74 0Q217.54 0 216.49-1 215.43-2 215.43-4.35L215.43-4.35 215.43-28.5Q215.43-31.35 216.89-32.8 218.34-34.25 221.04-34.25L221.04-34.25Q222.89-34.25 224.01-33.68 225.14-33.1 226.68-31.6L226.68-31.6 239.34-19 239.34-29.9Q239.34-32.05 240.41-33.13 241.49-34.2 243.34-34.2L243.34-34.2Q245.49-34.2 246.43-33.2 247.39-32.2 247.39-29.95L247.39-29.95ZM265.68-27.25L265.68-6.8Q266.98-6.8 267.96-7.08 268.93-7.35 269.81-8.08 270.68-8.8 271.23-10 271.78-11.2 272.11-13.08 272.43-14.95 272.43-17.5L272.43-17.5Q272.43-20.35 271.93-22.33 271.43-24.3 270.48-25.33 269.53-26.35 268.41-26.78 267.28-27.2 265.68-27.25L265.68-27.25ZM259.83-34.2L267.18-34.2Q274.98-34.2 279.71-29.7 284.43-25.2 284.43-17.3L284.43-17.3Q284.43-14.75 283.96-12.35 283.48-9.95 282.38-7.68 281.28-5.4 279.63-3.73 277.98-2.05 275.43-1.03 272.88 0 269.68 0L269.68 0 259.83 0Q256.78 0 255.46-1.55 254.13-3.1 254.13-7.15L254.13-7.15 254.13-28.25Q254.13-34.2 259.83-34.2L259.83-34.2ZM301.73-28.7L301.73-7.5Q301.73-3.6 300.28-1.8 298.83 0 295.88 0L295.88 0Q292.98 0 291.61-1.55 290.23-3.1 290.23-7.1L290.23-7.1 290.23-28.25Q290.23-34.25 295.88-34.25L295.88-34.25Q298.78-34.25 300.26-33.15 301.73-32.05 301.73-28.7L301.73-28.7ZM340.23-29.95L340.23-4.75Q340.23-2.55 338.93-1.28 337.63 0 335.13 0L335.13 0Q334.48 0 333.83-0.15 333.18-0.3 332.45-0.7 331.73-1.1 331.18-1.45 330.63-1.8 329.8-2.53 328.98-3.25 328.5-3.68 328.03-4.1 327.03-5.05 326.03-6 325.58-6.45L325.58-6.45 316.43-15.1 316.43-4.25Q316.43-1.8 315.5-0.9 314.58 0 312.58 0L312.58 0Q310.38 0 309.33-1 308.28-2 308.28-4.35L308.28-4.35 308.28-28.5Q308.28-31.35 309.73-32.8 311.18-34.25 313.88-34.25L313.88-34.25Q315.73-34.25 316.85-33.68 317.98-33.1 319.53-31.6L319.53-31.6 332.18-19 332.18-29.9Q332.18-32.05 333.25-33.13 334.33-34.2 336.18-34.2L336.18-34.2Q338.33-34.2 339.28-33.2 340.23-32.2 340.23-29.95L340.23-29.95ZM366.18-25.85L366.18-25.85Q366.18-27.4 364.13-27.4L364.13-27.4Q362.03-27.4 360.53-25.05 359.03-22.7 359.03-17.2L359.03-17.2Q359.03-12.1 360.75-9.78 362.48-7.45 364.83-7.45L364.83-7.45Q365.58-7.45 366.2-7.75 366.83-8.05 367.23-8.65 367.63-9.25 367.63-10.1L367.63-10.1Q366.43-10.1 365.55-10.55 364.68-11 364.28-11.68 363.88-12.35 363.88-13.15L363.88-13.15Q363.88-14.95 364.83-15.85 365.78-16.75 368.08-16.75L368.08-16.75 374.13-16.75Q377.03-16.75 378.63-15.5 380.23-14.25 380.23-11.1L380.23-11.1Q380.23-6.5 375.83-3.08 371.43 0.35 365.38 0.35L365.38 0.35Q359.83 0.35 355.5-1.65 351.18-3.65 348.65-7.63 346.13-11.6 346.13-17.05L346.13-17.05Q346.13-25.15 351.03-29.85 355.93-34.55 364.03-34.55L364.03-34.55Q367.23-34.55 369.78-34.08 372.33-33.6 374-32.8 375.68-32 376.8-30.88 377.93-29.75 378.4-28.5 378.88-27.25 378.88-25.9L378.88-25.9Q378.88-24.95 378.58-24.08 378.28-23.2 377.5-22.33 376.73-21.45 375.13-20.9 373.53-20.35 371.28-20.35L371.28-20.35Q367.98-20.35 367.08-21.33 366.18-22.3 366.18-25.85Z" fill="#61777f" data-fill-palette-color="primary"></path></g></svg></g></svg></g></svg></g></svg></g><g transform="matrix(1,0,0,1,412.818588095542,0)"><svg viewBox="0 0 83.055809136989 83.055809136989" height="83.055809136989" width="83.055809136989"><g><svg></svg></g><g id="icon-0"><svg viewBox="0 0 83.055809136989 83.055809136989" height="83.055809136989" width="83.055809136989"><g><path d="M0 41.528c0-22.935 18.593-41.528 41.528-41.528 22.935 0 41.528 18.593 41.528 41.528 0 22.935-18.593 41.528-41.528 41.528-22.935 0-41.528-18.593-41.528-41.528zM41.528 79.752c21.11 0 38.224-17.113 38.224-38.224 0-21.11-17.113-38.224-38.224-38.224-21.11 0-38.224 17.113-38.224 38.224 0 21.11 17.113 38.224 38.224 38.224z" data-fill-palette-color="accent" fill="#61777f" stroke="transparent"></path></g><g transform="matrix(1,0,0,1,19.37245344290728,23.141497498113075)"><svg viewBox="0 0 44.31090225117444 36.77281414076285" height="36.77281414076285" width="44.31090225117444"><g><svg xmlns="http://www.w3.org/2000/svg" xmlns:xlink="http://www.w3.org/1999/xlink" version="1.1" x="0" y="0" viewBox="7.013913631439209 14.337353706359863 85.986083984375 71.35829162597656" enable-background="new 0 0 100 100" xml:space="preserve" height="36.77281414076285" width="44.31090225117444" class="icon-s-0" data-fill-palette-color="accent" id="s-0"><path d="M84.8 30.4L79 45.8l-17.9 5.6L61.3 15c0-0.5-0.4-0.8-0.9-0.6l-10.1 3.4c-0.4 0.1-0.7 0.5-0.9 0.9L35.2 59.6 14 66.2c-5.3 1.7-8.2 7.4-6.5 12.7 1.8 5.3 7.6 8.1 12.8 6.2l70.2-25.3L93 28c0-0.5-0.4-0.8-0.9-0.7l-6.5 2.2C85.2 29.6 84.9 30 84.8 30.4z" fill="#61777f" data-fill-palette-color="accent"></path></svg></g></svg></g></svg></g></svg></g></svg></g><defs></defs></svg><rect width="395.52" height="66.24708557892612" fill="none" stroke="none" visibility="hidden"></rect></g></svg>